<svg width="36" height="36" viewBox="0 0 36 36" fill="none" xmlns="http://www.w3.org/2000/svg">
<path d="M17.5 19V5.5C17.5 5.075 17.644 4.7185 17.932 4.4305C18.219 4.1435 18.575 4 19 4H29.5C29.925 4 30.281 4.1435 30.568 4.4305C30.856 4.7185 31 5.075 31 5.5V13C31 13.425 30.856 13.781 30.568 14.068C30.281 14.356 29.925 14.5 29.5 14.5H22L17.5 19ZM29.425 31.075C26.2 31.075 23.0565 30.356 19.9945 28.918C16.9315 27.481 14.219 25.581 11.857 23.218C9.494 20.856 7.594 18.1435 6.157 15.0805C4.719 12.0185 4 8.875 4 5.65C4 5.2 4.15 4.825 4.45 4.525C4.75 4.225 5.125 4.075 5.575 4.075H11.65C12 4.075 12.3125 4.1875 12.5875 4.4125C12.8625 4.6375 13.025 4.925 13.075 5.275L14.05 10.525C14.1 10.875 14.094 11.1935 14.032 11.4805C13.969 11.7685 13.825 12.025 13.6 12.25L10 15.925C11.05 17.725 12.3625 19.4125 13.9375 20.9875C15.5125 22.5625 17.25 23.925 19.15 25.075L22.675 21.55C22.9 21.325 23.194 21.156 23.557 21.043C23.919 20.931 24.275 20.9 24.625 20.95L29.8 22C30.15 22.075 30.4375 22.2435 30.6625 22.5055C30.8875 22.7685 31 23.075 31 23.425V29.5C31 29.95 30.85 30.325 30.55 30.625C30.25 30.925 29.875 31.075 29.425 31.075Z" fill="#F3AD39"/>
</svg>
