<svg width="33" height="33" viewBox="0 0 33 33" fill="none" xmlns="http://www.w3.org/2000/svg">
<path d="M18.8099 14.685C18.3149 14.685 17.9189 14.289 17.9189 13.794V8.08497C17.9189 7.58997 18.3149 7.19397 18.8099 7.19397H24.6179C25.1129 7.19397 25.5089 7.58997 25.5089 8.08497V13.794C25.5089 14.289 25.1129 14.685 24.6179 14.685H18.8099Z" fill="black"/>
<path d="M21.318 18.0511L17.919 21.7141C17.721 21.9121 17.721 22.2751 17.919 22.4731L21.318 26.1361C21.549 26.3671 21.912 26.3671 22.143 26.1361L25.542 22.4731C25.74 22.2751 25.74 21.9121 25.542 21.7141L22.143 18.0511C21.912 17.8201 21.516 17.8201 21.318 18.0511Z" fill="black"/>
<path d="M11.1539 25.806C13.2681 25.806 14.9819 24.0922 14.9819 21.978C14.9819 19.8639 13.2681 18.15 11.1539 18.15C9.03978 18.15 7.32593 19.8639 7.32593 21.978C7.32593 24.0922 9.03978 25.806 11.1539 25.806Z" fill="black"/>
<path d="M7.78793 8.48094L10.7249 6.79794C10.9889 6.63294 11.3189 6.63294 11.6159 6.79794L14.5529 8.48094C14.8169 8.64594 14.9819 8.94294 14.9819 9.23994V12.6059C14.9819 12.9029 14.8169 13.1999 14.5529 13.3649L11.6159 15.0479C11.3519 15.2129 11.0219 15.2129 10.7249 15.0479L7.78793 13.3649C7.52393 13.1999 7.32593 12.9029 7.32593 12.6059V9.23994C7.32593 8.90994 7.52393 8.61294 7.78793 8.48094Z" fill="black"/>
</svg>
