<svg width="37" height="37" viewBox="0 0 37 37" fill="none" xmlns="http://www.w3.org/2000/svg">
<path d="M18.5 33.9168C27.0144 33.9168 33.9167 27.0146 33.9167 18.5002C33.9167 9.98577 27.0144 3.0835 18.5 3.0835C9.98565 3.0835 3.08337 9.98577 3.08337 18.5002C3.08337 27.0146 9.98565 33.9168 18.5 33.9168Z" fill="#272265"/>
<path d="M20.0417 33.8404C19.5347 33.8907 19.0204 33.9165 18.5001 33.9165C17.9797 33.9165 17.4655 33.8907 16.9584 33.8404V21.5832H15.4167C14.5653 21.5832 13.8751 20.8929 13.8751 20.0415C13.8751 19.1901 14.5653 18.4998 15.4167 18.4998H16.9584V15.4165C16.9584 12.8622 19.0291 10.7915 21.5834 10.7915H23.1251C23.9765 10.7915 24.6667 11.4817 24.6667 12.3332C24.6667 13.1846 23.9765 13.8748 23.1251 13.8748H21.5834C20.732 13.8748 20.0417 14.5651 20.0417 15.4165V18.4998H23.1251C23.9765 18.4998 24.6667 19.1901 24.6667 20.0415C24.6667 20.8929 23.9765 21.5832 23.1251 21.5832H20.0417V33.8404Z" fill="#FAFAFA"/>
</svg>
