<svg width="38" height="37" viewBox="0 0 38 37" fill="none" xmlns="http://www.w3.org/2000/svg">
<path d="M31.25 12.3359V12.3332L34.1407 9.21395C34.6119 8.70555 34.1881 7.88643 33.5009 7.97732L29.8792 8.45632C28.7487 7.05953 27.0203 6.1665 25.0834 6.1665C21.6776 6.1665 18.9167 8.92741 18.9167 12.3332C18.9167 13.1463 19.0741 13.9227 19.3601 14.6335C20.2953 16.9582 18.2331 20.8123 14.2914 24.6665C12.5411 26.3778 8.04198 26.8425 4.36015 26.5053C3.64369 26.4397 3.1939 27.2559 3.74795 27.7148C6.83518 30.2722 11.117 30.8331 15.0623 30.8331C25.0821 30.8331 32.0193 22.3555 31.25 12.3359Z" fill="#272265"/>
<path d="M14.2908 24.6666C7.27474 22.5618 4.09025 14.7097 5.89976 8.66636C6.09674 8.00848 6.98387 8.04394 7.29282 8.65726C9.98756 14.0069 15.477 14.6458 19.6876 14.6458C28.9376 14.6458 26.6251 28.3669 14.2908 24.6666Z" fill="#272265"/>
</svg>
