<svg width="38" height="37" viewBox="0 0 38 37" fill="none" xmlns="http://www.w3.org/2000/svg">
<path d="M4.83337 10.7917C4.83337 7.38591 7.59428 4.625 11 4.625H26.4167C29.8225 4.625 32.5834 7.38591 32.5834 10.7917V26.2083C32.5834 29.6141 29.8225 32.375 26.4167 32.375H11C7.59428 32.375 4.83337 29.6141 4.83337 26.2083V10.7917Z" fill="#272265"/>
<path fill-rule="evenodd" clip-rule="evenodd" d="M27.1876 11.5623C28.039 11.5623 28.7292 10.8721 28.7292 10.0207C28.7292 9.16923 28.039 8.479 27.1876 8.479C26.3361 8.479 25.6459 9.16923 25.6459 10.0207C25.6459 10.8721 26.3361 11.5623 27.1876 11.5623ZM15.6251 18.4998C15.6251 16.797 17.0055 15.4165 18.7084 15.4165C20.4113 15.4165 21.7917 16.797 21.7917 18.4998C21.7917 20.2027 20.4113 21.5832 18.7084 21.5832C17.0055 21.5832 15.6251 20.2027 15.6251 18.4998ZM18.7084 12.3332C15.3027 12.3332 12.5417 15.0941 12.5417 18.4998C12.5417 21.9056 15.3027 24.6665 18.7084 24.6665C22.1142 24.6665 24.8751 21.9056 24.8751 18.4998C24.8751 15.0941 22.1142 12.3332 18.7084 12.3332Z" fill="#FAFAFA"/>
</svg>
