<svg width="38" height="37" viewBox="0 0 38 37" fill="none" xmlns="http://www.w3.org/2000/svg">
<path d="M5.25 12.025C5.25 9.43476 5.25 8.13964 5.75409 7.15029C6.19751 6.28004 6.90504 5.57251 7.77529 5.12909C8.76464 4.625 10.0598 4.625 12.65 4.625H25.6C28.1902 4.625 29.4854 4.625 30.4747 5.12909C31.345 5.57251 32.0525 6.28004 32.4959 7.15029C33 8.13964 33 9.43476 33 12.025V24.975C33 27.5652 33 28.8604 32.4959 29.8497C32.0525 30.72 31.345 31.4275 30.4747 31.8709C29.4854 32.375 28.1902 32.375 25.6 32.375H12.65C10.0598 32.375 8.76464 32.375 7.77529 31.8709C6.90504 31.4275 6.19751 30.72 5.75409 29.8497C5.25 28.8604 5.25 27.5652 5.25 24.975V12.025Z" fill="#272265"/>
<path fill-rule="evenodd" clip-rule="evenodd" d="M20.6666 9.25C21.5181 9.25 22.2083 9.94023 22.2083 10.7917C22.2083 12.4945 23.5887 13.875 25.2916 13.875C26.1431 13.875 26.8333 14.5652 26.8333 15.4167C26.8333 16.2681 26.1431 16.9583 25.2916 16.9583C24.1684 16.9583 23.1153 16.658 22.2083 16.1333V22.3539C22.2083 22.354 22.2083 22.3541 22.2083 22.3542C22.2081 25.3341 19.7924 27.7497 16.8125 27.7497C13.8324 27.7497 11.4166 25.3339 11.4166 22.3539C11.4166 19.7416 13.2714 17.566 15.7349 17.0659C16.5694 16.8965 17.3831 17.4357 17.5525 18.2701C17.7219 19.1045 17.1827 19.9183 16.3483 20.0876C15.2934 20.3018 14.5 21.2369 14.5 22.3539C14.5 23.631 15.5353 24.6664 16.8125 24.6664C18.0895 24.6664 19.1248 23.6312 19.125 22.3542C19.125 22.3541 19.125 22.354 19.125 22.3539V10.7917C19.125 9.94023 19.8152 9.25 20.6666 9.25Z" fill="#FAFAFA"/>
</svg>
