<svg width="25" height="25" viewBox="0 0 25 25" fill="none" xmlns="http://www.w3.org/2000/svg">
<g clip-path="url(#clip0_136_217)">
<path d="M18.0141 25.3344C18.0063 25.3344 17.9985 25.3344 17.9907 25.3344C14.2328 25.2114 9.83051 21.5688 6.7973 18.5336C3.76019 15.4985 0.117614 11.0942 0.000426141 7.35394C-0.0425424 6.04144 3.17816 3.70745 3.21136 3.68402C4.0473 3.10199 4.97504 3.30902 5.3559 3.83636C5.61371 4.19378 8.05511 7.893 8.32074 8.31292C8.59613 8.74847 8.55511 9.39691 8.21136 10.0473C8.02191 10.4086 7.393 11.5141 7.09808 12.0297C7.41644 12.4828 8.25824 13.5942 9.99652 15.3325C11.7368 17.0707 12.8461 17.9145 13.3012 18.2328C13.8168 17.9379 14.9223 17.309 15.2836 17.1196C15.9243 16.7797 16.5688 16.7368 17.0082 17.0063C17.4575 17.2817 21.1469 19.7348 21.4868 19.9711C21.7719 20.1723 21.9555 20.516 21.9926 20.9164C22.0278 21.3207 21.9028 21.7485 21.643 22.1215C21.6215 22.1528 19.3149 25.3344 18.0141 25.3344Z" fill="#232659"/>
</g>
<defs>
<clipPath id="clip0_136_217">
<rect width="25" height="25" fill="white"/>
</clipPath>
</defs>
</svg>
