<svg width="7" height="11" viewBox="0 0 7 11" fill="none" xmlns="http://www.w3.org/2000/svg">
<path d="M0.31088 0.289401C0.212332 0.380541 0.134148 0.488798 0.0808034 0.607975C0.0274585 0.727152 0 0.854909 0 0.983933C0 1.11296 0.0274585 1.24071 0.0808034 1.35989C0.134148 1.47907 0.212332 1.58733 0.31088 1.67847L4.43547 5.50086L0.31088 9.32325C0.112115 9.50745 0.000450125 9.75728 0.000450125 10.0178C0.000450125 10.2783 0.112115 10.5281 0.31088 10.7123C0.509645 10.8965 0.779227 11 1.06032 11C1.34142 11 1.611 10.8965 1.80977 10.7123L6.68912 6.19046C6.78767 6.09932 6.86585 5.99107 6.9192 5.87189C6.97254 5.75271 7 5.62496 7 5.49593C7 5.36691 6.97254 5.23915 6.9192 5.11997C6.86585 5.0008 6.78767 4.89254 6.68912 4.8014L1.80977 0.279549C1.40581 -0.094809 0.725466 -0.0948088 0.31088 0.289401Z" fill="#232659"/>
</svg>
