<svg width="38" height="37" viewBox="0 0 38 37" fill="none" xmlns="http://www.w3.org/2000/svg">
<path d="M4.18053 11.8375C4.36715 8.96762 6.5815 6.68381 9.45089 6.48935C11.9555 6.31961 15.3255 6.1665 19.3334 6.1665C23.3413 6.1665 26.7113 6.31961 29.2159 6.48935C32.0853 6.68381 34.2997 8.96761 34.4863 11.8375C34.6256 13.9805 34.7501 16.4642 34.7501 18.4998C34.7501 20.5355 34.6256 23.0192 34.4863 25.1622C34.2997 28.0321 32.0853 30.3159 29.2159 30.5103C26.7113 30.6801 23.3413 30.8332 19.3334 30.8332C15.3255 30.8332 11.9555 30.6801 9.45089 30.5103C6.5815 30.3159 4.36715 28.0321 4.18053 25.1622C4.04119 23.0192 3.91675 20.5355 3.91675 18.4998C3.91675 16.4642 4.04119 13.9805 4.18053 11.8375Z" fill="#272265"/>
<path d="M16.25 15.4192C16.25 14.1901 17.6179 13.4552 18.6428 14.1338L23.2576 17.1894C24.1968 17.8112 24.1967 19.1899 23.2575 19.8117L18.6427 22.8669C17.6179 23.5454 16.25 22.8105 16.25 21.5814V15.4192Z" fill="#FAFAFA"/>
</svg>
