<svg width="51" height="51" viewBox="0 0 51 51" fill="none" xmlns="http://www.w3.org/2000/svg">
<g clip-path="url(#clip0_141_1432)">
<path d="M50.6016 8.25763V47.5236C50.6016 49.217 49.227 50.6016 47.5336 50.6016H3.46641C1.77305 50.6016 0.398438 49.227 0.398438 47.5236V8.25763H50.6016Z" fill="white"/>
<path d="M50.6014 8.25763V47.5236C50.6014 49.217 49.2268 50.6016 47.5334 50.6016H44.6846C46.3779 50.6016 47.7625 49.227 47.7625 47.5236V8.25763H50.6014Z" fill="#EDEDED"/>
<path d="M50.6016 8.2576V3.47635C50.6016 1.78299 49.227 0.408379 47.5336 0.408379H3.47637C1.77305 0.398418 0.398438 1.77303 0.398438 3.47635V8.2576H50.6016Z" fill="#D3D9D9"/>
<path d="M6.3252 0.398438C4.63184 0.398438 3.24727 1.77305 3.24727 3.46641V8.25762H0.398438V3.46641C0.398438 1.77305 1.77305 0.398438 3.46641 0.398438H6.3252Z" fill="#EDEDED"/>
<path d="M50.6016 3.46641V8.25762H47.7527V3.46641C47.7527 1.77305 46.3781 0.398438 44.6748 0.398438H47.5336C49.227 0.398438 50.6016 1.77305 50.6016 3.46641Z" fill="#A8B2B4"/>
<path d="M51 3.46641C51 1.55391 49.4461 0 47.5336 0H3.47637C1.55391 0 0 1.55391 0 3.46641V47.5236C0 49.4361 1.55391 51 3.46641 51H47.5236C49.4361 51 50.99 49.4461 50.99 47.5236L51 3.46641ZM0.796875 3.46641C0.796875 1.99219 2.00215 0.796875 3.47637 0.796875H47.5336C49.0078 0.796875 50.2031 1.99219 50.2031 3.46641V7.84922H0.796875V3.46641ZM50.2031 47.5236C50.2031 48.9979 49.0078 50.2031 47.5336 50.2031H3.46641C1.99219 50.2031 0.796875 48.9979 0.796875 47.5236V8.65605H50.2031V47.5236Z" fill="#333333"/>
<path d="M5.04004 5.72754C5.81022 5.72754 6.43457 5.10319 6.43457 4.33301C6.43457 3.56283 5.81022 2.93848 5.04004 2.93848C4.26986 2.93848 3.64551 3.56283 3.64551 4.33301C3.64551 5.10319 4.26986 5.72754 5.04004 5.72754Z" fill="#FC8A8A"/>
<path d="M10.0107 5.72754C10.7809 5.72754 11.4053 5.10319 11.4053 4.33301C11.4053 3.56283 10.7809 2.93848 10.0107 2.93848C9.24056 2.93848 8.61621 3.56283 8.61621 4.33301C8.61621 5.10319 9.24056 5.72754 10.0107 5.72754Z" fill="#FEDD8E"/>
<path d="M14.9712 5.72754C15.7414 5.72754 16.3657 5.10319 16.3657 4.33301C16.3657 3.56283 15.7414 2.93848 14.9712 2.93848C14.201 2.93848 13.5767 3.56283 13.5767 4.33301C13.5767 5.10319 14.201 5.72754 14.9712 5.72754Z" fill="#7BDE9E"/>
<path d="M6.43447 4.32303C6.43447 5.09999 5.80693 5.71757 5.03994 5.71757C4.44228 5.71757 3.92432 5.33905 3.7251 4.7912C3.87451 4.841 4.03389 4.87089 4.20322 4.87089C4.97021 4.87089 5.59775 4.25331 5.59775 3.47636C5.59775 3.30702 5.56787 3.14764 5.51807 2.99823C6.046 3.21737 6.43447 3.72538 6.43447 4.32303Z" fill="#F96363"/>
<path d="M11.3949 4.32303C11.3949 5.09999 10.7674 5.71757 10.0004 5.71757C9.40273 5.71757 8.88477 5.33905 8.68555 4.7912C8.83496 4.841 8.99434 4.87089 9.16367 4.87089C9.93066 4.87089 10.5582 4.25331 10.5582 3.47636C10.5582 3.30702 10.5283 3.14764 10.4785 2.99823C11.0164 3.21737 11.3949 3.72538 11.3949 4.32303Z" fill="#FDD267"/>
<path d="M16.3656 4.32303C16.3656 5.09999 15.7381 5.71757 14.9711 5.71757C14.3734 5.71757 13.8555 5.33905 13.6562 4.7912C13.8057 4.841 13.965 4.87089 14.1244 4.87089C14.8914 4.87089 15.5189 4.25331 15.5189 3.47636C15.5189 3.30702 15.4891 3.14764 15.4293 2.99823C15.9771 3.21737 16.3656 3.72538 16.3656 4.32303Z" fill="#50D27E"/>
<path d="M5.04004 6.12598C4.05391 6.12598 3.24707 5.31914 3.24707 4.33301C3.24707 3.34688 4.05391 2.54004 5.04004 2.54004C6.02617 2.54004 6.83301 3.34688 6.83301 4.33301C6.83301 5.31914 6.02617 6.12598 5.04004 6.12598ZM5.04004 3.33691C4.49219 3.33691 4.04395 3.78516 4.04395 4.33301C4.04395 4.88086 4.49219 5.3291 5.04004 5.3291C5.58789 5.3291 6.03613 4.88086 6.03613 4.33301C6.03613 3.78516 5.58789 3.33691 5.04004 3.33691Z" fill="#333333"/>
<path d="M10.0107 6.12598C9.02461 6.12598 8.21777 5.31914 8.21777 4.33301C8.21777 3.34688 9.02461 2.54004 10.0107 2.54004C10.9969 2.54004 11.8037 3.34688 11.8037 4.33301C11.8037 5.31914 10.9969 6.12598 10.0107 6.12598ZM10.0107 3.33691C9.46289 3.33691 9.01465 3.78516 9.01465 4.33301C9.01465 4.88086 9.46289 5.3291 10.0107 5.3291C10.5586 5.3291 11.0068 4.88086 11.0068 4.33301C11.0068 3.78516 10.5586 3.33691 10.0107 3.33691Z" fill="#333333"/>
<path d="M14.9712 6.12598C13.9851 6.12598 13.1782 5.31914 13.1782 4.33301C13.1782 3.34688 13.9851 2.54004 14.9712 2.54004C15.9573 2.54004 16.7642 3.34688 16.7642 4.33301C16.7642 5.31914 15.9573 6.12598 14.9712 6.12598ZM14.9712 3.33691C14.4233 3.33691 13.9751 3.78516 13.9751 4.33301C13.9751 4.88086 14.4233 5.3291 14.9712 5.3291C15.519 5.3291 15.9673 4.88086 15.9673 4.33301C15.9673 3.78516 15.519 3.33691 14.9712 3.33691Z" fill="#333333"/>
<path d="M47.3539 4.32306C47.3539 5.10001 46.7264 5.71759 45.9594 5.71759H22.8799C22.1129 5.71759 21.4854 5.10001 21.4854 4.32306C21.4854 3.55607 22.1129 2.92853 22.8799 2.92853H45.9594C46.7264 2.92853 47.3539 3.55607 47.3539 4.32306Z" fill="white"/>
<path d="M47.3539 4.32308C47.3539 5.10004 46.7264 5.71762 45.9594 5.71762H22.8799C22.1328 5.71762 21.5252 5.12992 21.4854 4.39281C21.6846 4.50238 21.9137 4.56215 22.1527 4.56215H45.2322C45.9992 4.56215 46.6268 3.94457 46.6268 3.16761V3.10785C47.0551 3.33695 47.3539 3.80511 47.3539 4.32308Z" fill="#EDEDED"/>
<path d="M45.9594 6.11603H22.8799C21.8938 6.11603 21.0869 5.30919 21.0869 4.32306C21.0869 3.33693 21.8938 2.53009 22.8799 2.53009H45.9594C46.9455 2.53009 47.7523 3.33693 47.7523 4.32306C47.7523 5.30919 46.9455 6.11603 45.9594 6.11603ZM22.8799 3.32697C22.332 3.32697 21.8838 3.77521 21.8838 4.32306C21.8838 4.87091 22.332 5.31915 22.8799 5.31915H45.9594C46.5072 5.31915 46.9555 4.87091 46.9555 4.32306C46.9555 3.77521 46.5072 3.32697 45.9594 3.32697H22.8799Z" fill="#333333"/>
<path d="M45.3822 12.2719C45.3822 12.2719 45.3822 16.4654 45.3822 22.0535H5.61816V12.2719H45.3822Z" fill="#FDD267"/>
<path d="M44.9438 12.75C44.9438 12.75 44.9438 13.5469 44.9438 14.9115H5.17969V12.75H44.9438Z" fill="#FDD267"/>
<path d="M45.3822 19.892H5.61816V22.0435H45.3822V19.892Z" fill="#FDD267"/>
<path d="M45.3822 22.442H5.61816C5.39902 22.442 5.21973 22.2627 5.21973 22.0435V12.2619C5.21973 12.0428 5.39902 11.8635 5.61816 11.8635H45.3822C45.6014 11.8635 45.7807 12.0428 45.7807 12.2619V22.0435C45.7807 22.2726 45.6014 22.442 45.3822 22.442ZM6.0166 21.6451H44.9838V12.6603H6.0166V21.6451Z" fill="#333333"/>
<path d="M45.3822 26.4562H5.61816C5.39902 26.4562 5.21973 26.2769 5.21973 26.0578C5.21973 25.8387 5.39902 25.6594 5.61816 25.6594H45.3822C45.6014 25.6594 45.7807 25.8387 45.7807 26.0578C45.7807 26.2769 45.6014 26.4562 45.3822 26.4562Z" fill="#333333"/>
<path d="M45.3822 46.9857H5.61816C5.39902 46.9857 5.21973 46.8064 5.21973 46.5873C5.21973 46.3681 5.39902 46.1888 5.61816 46.1888H45.3822C45.6014 46.1888 45.7807 46.3681 45.7807 46.5873C45.7807 46.8064 45.6014 46.9857 45.3822 46.9857Z" fill="#333333"/>
<path d="M45.3822 42.9715H26.7852C26.566 42.9715 26.3867 42.7922 26.3867 42.573C26.3867 42.3539 26.566 42.1746 26.7852 42.1746H45.3822C45.6014 42.1746 45.7807 42.3539 45.7807 42.573C45.7807 42.7922 45.6014 42.9715 45.3822 42.9715Z" fill="#333333"/>
<path d="M45.3822 38.8078H26.7852C26.566 38.8078 26.3867 38.6285 26.3867 38.4094C26.3867 38.1902 26.566 38.0109 26.7852 38.0109H45.3822C45.6014 38.0109 45.7807 38.1902 45.7807 38.4094C45.7807 38.6285 45.6014 38.8078 45.3822 38.8078Z" fill="#333333"/>
<path d="M45.3822 34.6342H26.7852C26.566 34.6342 26.3867 34.4549 26.3867 34.2357C26.3867 34.0166 26.566 33.8373 26.7852 33.8373H45.3822C45.6014 33.8373 45.7807 34.0166 45.7807 34.2357C45.7807 34.4549 45.6014 34.6342 45.3822 34.6342Z" fill="#333333"/>
<path d="M45.3822 30.4605H26.7852C26.566 30.4605 26.3867 30.2812 26.3867 30.0621C26.3867 29.843 26.566 29.6637 26.7852 29.6637H45.3822C45.6014 29.6637 45.7807 29.843 45.7807 30.0621C45.7807 30.2812 45.6014 30.4605 45.3822 30.4605Z" fill="#333333"/>
<path d="M21.5656 30.0621H5.61816V42.573H21.5656V30.0621Z" fill="#FDD267"/>
<path d="M21.5557 30.0621H5.61816V32.6619H21.5557V30.0621Z" fill="#FDD267"/>
<path d="M21.5557 39.9832H5.61816V42.583H21.5557V39.9832Z" fill="#FDD267"/>
<path d="M21.5557 42.9715H5.61816C5.39902 42.9715 5.21973 42.7922 5.21973 42.573V30.0621C5.21973 29.843 5.39902 29.6637 5.61816 29.6637H21.5656C21.7848 29.6637 21.9641 29.843 21.9641 30.0621V42.573C21.9541 42.8021 21.7848 42.9715 21.5557 42.9715ZM6.0166 42.1746H21.1672V30.4605H6.0166V42.1746Z" fill="#333333"/>
</g>
<defs>
<clipPath id="clip0_141_1432">
<rect width="51" height="51" fill="white"/>
</clipPath>
</defs>
</svg>
