<svg width="53" height="29" viewBox="0 0 53 29" fill="none" xmlns="http://www.w3.org/2000/svg">
<path d="M12.6477 10.875C11.5757 10.875 10.5277 10.5561 9.63628 9.95862C8.74489 9.36114 8.05014 8.51192 7.63988 7.51834C7.22962 6.52477 7.12227 5.43147 7.33142 4.3767C7.54057 3.32193 8.05682 2.35306 8.81489 1.59261C9.57295 0.832162 10.5388 0.31429 11.5902 0.104482C12.6417 -0.105325 13.7316 0.00235596 14.722 0.413907C15.7125 0.825459 16.5591 1.5224 17.1547 2.41659C17.7503 3.31078 18.0682 4.36207 18.0682 5.4375C18.0712 6.15242 17.9331 6.86085 17.6617 7.52193C17.3904 8.18301 16.9913 8.78364 16.4873 9.28917C15.9834 9.79469 15.3846 10.1951 14.7256 10.4673C14.0666 10.7395 13.3604 10.878 12.6477 10.875ZM12.6477 14.5C13.1717 14.5 13.768 14.5363 14.4003 14.5906C13.3409 15.2597 12.462 16.1802 11.8412 17.2707C11.2204 18.3613 10.8769 19.5884 10.8409 20.8438V25.375H0V20.8438C0 16.6206 8.43784 14.5 12.6477 14.5Z" fill="#232659"/>
<path d="M40.3523 10.875C41.4243 10.875 42.4723 10.5561 43.3637 9.95862C44.2551 9.36114 44.9499 8.51192 45.3601 7.51834C45.7704 6.52477 45.8777 5.43147 45.6686 4.3767C45.4594 3.32193 44.9432 2.35306 44.1851 1.59261C43.427 0.832162 42.4612 0.31429 41.4098 0.104482C40.3583 -0.105325 39.2684 0.00235596 38.278 0.413907C37.2875 0.825459 36.4409 1.5224 35.8453 2.41659C35.2497 3.31078 34.9318 4.36207 34.9318 5.4375C34.9288 6.15242 35.0669 6.86085 35.3383 7.52193C35.6096 8.18301 36.0087 8.78364 36.5127 9.28917C37.0166 9.79469 37.6154 10.1951 38.2744 10.4673C38.9334 10.7395 39.6396 10.878 40.3523 10.875ZM25.8977 10.875C26.9698 10.875 28.0178 10.5561 28.9092 9.95862C29.8006 9.36114 30.4953 8.51192 30.9056 7.51834C31.3158 6.52477 31.4232 5.43147 31.214 4.3767C31.0049 3.32193 30.4886 2.35306 29.7306 1.59261C28.9725 0.832162 28.0067 0.31429 26.9552 0.104482C25.9037 -0.105325 24.8139 0.00235596 23.8234 0.413907C22.833 0.825459 21.9864 1.5224 21.3908 2.41659C20.7952 3.31078 20.4773 4.36207 20.4773 5.4375C20.4742 6.15242 20.6124 6.86085 20.8837 7.52193C21.155 8.18301 21.5542 8.78364 22.0581 9.28917C22.5621 9.79469 23.1608 10.1951 23.8198 10.4673C24.4788 10.7395 25.1851 10.878 25.8977 10.875ZM25.8977 14.5C21.6878 14.5 13.25 16.6206 13.25 20.8438V25.375H38.5455V20.8438C38.5455 16.6206 30.1076 14.5 25.8977 14.5ZM40.3523 14.5C39.8283 14.5 39.232 14.5363 38.5997 14.5906C39.6591 15.2597 40.538 16.1802 41.1588 17.2707C41.7796 18.3613 42.1231 19.5884 42.1591 20.8438V25.375H53V20.8438C53 16.6206 44.5622 14.5 40.3523 14.5Z" fill="#232659"/>
</svg>
