<svg width="25" height="25" viewBox="0 0 25 25" fill="none" xmlns="http://www.w3.org/2000/svg">
<g clip-path="url(#clip0_90_61)">
<path d="M20.8333 4.16666H4.16659C3.02075 4.16666 2.09367 5.10416 2.09367 6.24999L2.08325 18.75C2.08325 19.8958 3.02075 20.8333 4.16659 20.8333H20.8333C21.9791 20.8333 22.9166 19.8958 22.9166 18.75V6.24999C22.9166 5.10416 21.9791 4.16666 20.8333 4.16666ZM20.4166 8.59374L13.052 13.1979C12.7187 13.4062 12.2812 13.4062 11.9478 13.1979L4.58325 8.59374C4.32284 8.42707 4.16659 8.14582 4.16659 7.84374C4.16659 7.14582 4.927 6.72916 5.52075 7.09374L12.4999 11.4583L19.4791 7.09374C20.0728 6.72916 20.8333 7.14582 20.8333 7.84374C20.8333 8.14582 20.677 8.42707 20.4166 8.59374Z" fill="#F3AD39"/>
</g>
<defs>
<clipPath id="clip0_90_61">
<rect width="25" height="25" fill="white"/>
</clipPath>
</defs>
</svg>
