<svg width="25" height="25" viewBox="0 0 25 25" fill="none" xmlns="http://www.w3.org/2000/svg">
<g clip-path="url(#clip0_90_66)">
<path d="M18.0141 25.3343C18.0063 25.3343 17.9985 25.3343 17.9907 25.3343C14.2328 25.2112 9.83051 21.5686 6.7973 18.5335C3.76019 15.4983 0.117614 11.094 0.000426141 7.35379C-0.0425424 6.04129 3.17816 3.7073 3.21136 3.68386C4.0473 3.10183 4.97504 3.30886 5.3559 3.83621C5.61371 4.19363 8.05511 7.89285 8.32074 8.31277C8.59613 8.74832 8.55511 9.39676 8.21136 10.0471C8.02191 10.4085 7.393 11.5139 7.09808 12.0296C7.41644 12.4827 8.25824 13.594 9.99652 15.3323C11.7368 17.0706 12.8461 17.9143 13.3012 18.2327C13.8168 17.9378 14.9223 17.3089 15.2836 17.1194C15.9243 16.7796 16.5688 16.7366 17.0082 17.0061C17.4575 17.2815 21.1469 19.7346 21.4868 19.971C21.7719 20.1721 21.9555 20.5159 21.9926 20.9163C22.0278 21.3206 21.9028 21.7483 21.643 22.1214C21.6215 22.1526 19.3149 25.3343 18.0141 25.3343Z" fill="#F3AD39"/>
</g>
<defs>
<clipPath id="clip0_90_66">
<rect width="25" height="25" fill="white"/>
</clipPath>
</defs>
</svg>
